<mxfile host="app.diagrams.net" modified="2024-06-06T15:07:56.189Z" agent="Mozilla/5.0 (Macintosh; Intel Mac OS X 10_15_7) AppleWebKit/537.36 (KHTML, like Gecko) Chrome/124.0.0.0 Safari/537.36 OPR/110.0.0.0" version="24.4.15" etag="yn13EgFvSr7o3FAGf9DO" type="github">
  <diagram name="Page-1" id="l-mODaauL4Jr2IC7iCz7">
    <mxGraphModel>
      <root>
        <mxCell id="0" />
        <mxCell id="1" parent="0" />
      </root>
    </mxGraphModel>
  </diagram>
</mxfile>
